<svg width="32" height="32" viewBox="0 0 32 32" fill="none" xmlns="http://www.w3.org/2000/svg">
<path fill-rule="evenodd" clip-rule="evenodd" d="M23.5529 4.61882C23.1498 4.97275 22.6878 5.26255 22.5265 5.26298C22.1599 5.26362 12.9659 15.3568 12.7178 16.031C12.3782 16.9531 11.7782 20.4781 11.9046 20.8076C12.0899 21.2905 12.929 21.2124 15.2378 20.4972L17.2994 19.8586L22.0722 14.5854C24.6973 11.6851 26.8449 9.1642 26.8449 8.98359C26.8449 8.80276 27.038 8.40936 27.2739 8.10948C27.8572 7.36793 27.848 5.93352 27.2551 5.17975C26.2078 3.84852 24.6917 3.61879 23.5529 4.61882ZM25.572 5.91336C26.0725 6.18128 26.1197 6.94085 25.6473 7.1221C25.1999 7.29392 24.3843 6.47837 24.5561 6.03091C24.7076 5.636 24.9922 5.60319 25.572 5.91336ZM5.58736 7.86515C3.98156 8.79654 4.00001 8.68156 4.00001 17.7037C4.00001 25.6891 4.00344 25.7533 4.48608 26.5293C5.39173 27.9856 5.48825 28 14.3321 28C21.6356 28 22.2968 27.9695 22.9872 27.6004C24.4334 26.8271 24.5838 26.2782 24.6628 21.4839C24.7012 19.139 24.6769 16.9975 24.6085 16.7256C24.4603 16.135 23.7309 15.8491 23.2953 16.2107C23.0417 16.4212 22.9838 17.277 22.9838 20.8115C22.9838 24.8794 22.9557 25.1893 22.5391 25.7187L22.0947 26.2839H14.3139C6.6764 26.2839 6.52582 26.2756 6.12469 25.8324C5.7388 25.4062 5.71606 24.9523 5.71606 17.7037C5.71606 10.4551 5.7388 10.0012 6.12469 9.57498C6.51445 9.14426 6.73346 9.12345 10.8799 9.12345C13.2705 9.12345 15.3791 9.06489 15.5658 8.99324C16.0132 8.82164 16.0132 7.70921 15.5658 7.5376C15.3791 7.46596 13.2315 7.40954 10.793 7.41233C6.69206 7.41684 6.30166 7.45094 5.58736 7.86515ZM23.8886 8.23582L24.7767 9.06424L20.5018 13.7467C16.3148 18.3328 16.2011 18.4367 14.9744 18.8009L13.7216 19.1726L13.8334 18.7063C13.895 18.4498 14.0112 17.8755 14.0921 17.43C14.2124 16.7661 14.9939 15.789 18.4238 12.0137C20.7255 9.48017 22.697 7.4074 22.8047 7.4074C22.9124 7.4074 23.4002 7.78021 23.8886 8.23582Z" fill="#646464"/>
</svg>
