<svg width="32" height="32" viewBox="0 0 32 32" fill="none" xmlns="http://www.w3.org/2000/svg">
<rect width="32" height="32" rx="4" fill="#333333"/>
<path fill-rule="evenodd" clip-rule="evenodd" d="M10.5964 8.91896C6.51172 10.4027 5.29905 10.8599 5.20226 10.9526C5.04635 11.102 4.96999 11.3464 5.01093 11.5648C5.07441 11.9032 5.14927 11.9414 7.29579 12.7316L9.26964 13.4582L9.26999 15.6474C9.27022 16.8515 9.28336 17.9016 9.29924 17.9809C9.33983 18.184 9.82259 18.6813 10.2592 18.9699C11.7132 19.931 13.7158 20.3686 16.3714 20.3056C18.3052 20.2597 19.7097 19.9797 20.9449 19.3937C21.6211 19.0729 22.2676 18.6112 22.5394 18.255L22.6597 18.0973L22.6817 15.8045L22.7038 13.5118L23.4758 13.2319C23.9004 13.078 24.2627 12.9518 24.2809 12.9514C24.2992 12.9511 24.314 14.1857 24.314 15.6949V18.439L23.3696 19.3897C22.0333 20.7348 22.0335 20.6074 23.367 21.9505L24.3089 22.899L24.3225 23.7452C24.335 24.5247 24.3434 24.6011 24.4289 24.7157C24.7118 25.0947 25.2398 25.0947 25.5226 24.7157C25.6082 24.601 25.6165 24.5253 25.6285 23.7452L25.6415 22.899L26.5396 21.9947C27.0335 21.4972 27.4694 21.0267 27.5081 20.9491C27.5978 20.7695 27.5978 20.5729 27.5081 20.3932C27.4694 20.3156 27.0325 19.8448 26.5373 19.347L25.6369 18.4419L25.6482 15.4447L25.6596 12.4474L26.2558 12.2249C27.0096 11.9435 27.0394 11.9255 27.145 11.6868C27.2605 11.4257 27.2223 11.1842 27.0333 10.9815C26.9072 10.8463 26.4194 10.6609 21.5921 8.91406C17.2001 7.32464 16.2531 6.99598 16.0776 7.00004C15.9166 7.00379 14.6013 7.46427 10.5964 8.91896ZM20.3436 9.86984C22.6365 10.6988 24.5265 11.3888 24.5435 11.4031C24.5606 11.4174 22.6378 12.127 20.2707 12.98L15.9668 14.5309L11.7788 12.9801C8.86413 11.9008 7.61475 11.4191 7.66959 11.3958C8.0032 11.2537 16.0177 8.36874 16.0863 8.36601C16.1349 8.36411 18.0506 9.04081 20.3436 9.86984ZM13.2034 14.9234C15.2371 15.6803 15.8192 15.8805 15.9761 15.8769C16.1159 15.8738 16.9356 15.597 18.7481 14.941C20.1636 14.4288 21.3299 14.0096 21.3399 14.0096C21.35 14.0096 21.3582 14.8122 21.3582 15.7931V17.5766L21.2022 17.7052C20.4377 18.3354 18.9195 18.8058 17.1726 18.9536C16.4136 19.0179 14.845 18.9846 14.1673 18.8898C12.6924 18.6835 11.4629 18.2679 10.8167 17.7571L10.5939 17.581V15.7733C10.5939 14.779 10.6019 13.9655 10.6116 13.9655C10.6213 13.9655 11.7877 14.3966 13.2034 14.9234ZM25.4834 20.1862L25.9674 20.6717L25.4716 21.1675L24.9758 21.6633L24.4799 21.1675L23.9842 20.6717L24.4682 20.1862C24.7344 19.9191 24.9628 19.7006 24.9758 19.7006C24.9887 19.7006 25.2171 19.9191 25.4834 20.1862Z" fill="url(#paint0_linear_1_950)"/>
<defs>
<linearGradient id="paint0_linear_1_950" x1="5" y1="11.9929" x2="27.5787" y2="11.8503" gradientUnits="userSpaceOnUse">
<stop stop-color="#F5BD4D"/>
<stop offset="1" stop-color="#F89222"/>
</linearGradient>
</defs>
</svg>
