<svg width="32" height="32" viewBox="0 0 32 32" fill="none" xmlns="http://www.w3.org/2000/svg">
<circle cx="16" cy="16" r="16" fill="url(#paint0_linear_1_878)"/>
<path d="M9.816 20V11.6H15.3V12.836H11.352V15.14H14.94V16.34H11.352V18.764H15.3V20H9.816ZM16.7175 20V14.048H18.0735L18.1935 15.056C18.3775 14.704 18.6415 14.424 18.9855 14.216C19.3375 14.008 19.7495 13.904 20.2215 13.904C20.9575 13.904 21.5295 14.136 21.9375 14.6C22.3455 15.064 22.5495 15.744 22.5495 16.64V20H21.0135V16.784C21.0135 16.272 20.9095 15.88 20.7015 15.608C20.4935 15.336 20.1695 15.2 19.7295 15.2C19.2975 15.2 18.9415 15.352 18.6615 15.656C18.3895 15.96 18.2535 16.384 18.2535 16.928V20H16.7175Z" fill="white"/>
<defs>
<linearGradient id="paint0_linear_1_878" x1="0" y1="8.87633" x2="32.0052" y2="8.71509" gradientUnits="userSpaceOnUse">
<stop stop-color="#F5BD4D"/>
<stop offset="1" stop-color="#F89222"/>
</linearGradient>
</defs>
</svg>
