<svg width="32" height="32" viewBox="0 0 32 32" fill="none" xmlns="http://www.w3.org/2000/svg">
<rect width="32" height="32" rx="4" fill="#333333"/>
<path fill-rule="evenodd" clip-rule="evenodd" d="M8.27287 7.07125C8.19253 7.11369 8.11391 7.19455 8.0707 7.27925C8.00046 7.417 8 7.47157 8 15.9994C8 24.5306 8.00042 24.5817 8.07077 24.7196C8.11634 24.809 8.19102 24.8837 8.28036 24.9292C8.41793 24.9994 8.47415 25 14.8559 25C21.2377 25 21.294 24.9994 21.4315 24.9292C21.5209 24.8837 21.5955 24.809 21.6411 24.7196C21.7065 24.5914 21.7119 24.5135 21.7119 23.6885V22.7961L22.0315 22.7177C23.3909 22.3843 24.4158 21.3641 24.7744 19.9875C24.8926 19.5338 24.8926 18.7232 24.7744 18.2695C24.416 16.8936 23.392 15.8729 22.0364 15.5405L21.7119 15.4609V12.8454C21.7119 10.5206 21.7057 10.2174 21.6557 10.1173C21.5783 9.96211 18.772 7.15078 18.6105 7.06668C18.4833 7.00044 18.3545 6.99879 13.4422 7.0003C8.49581 7.00185 8.40193 7.00312 8.27287 7.07125ZM17.8444 9.25032C17.8444 10.3804 17.8484 10.4549 17.9152 10.5859C17.9608 10.6752 18.0354 10.7499 18.1248 10.7954C18.2558 10.8623 18.3303 10.8662 19.4603 10.8662H20.6571V13.1635V15.4609L20.3375 15.5393C19.7196 15.6908 19.1219 16.0101 18.6669 16.4315L18.4522 16.6305L15.8656 16.6401C13.3155 16.6497 13.2775 16.6508 13.1819 16.7223C12.8519 16.9687 12.8436 17.3927 13.1647 17.6072L13.2842 17.687H15.5329C17.3822 17.687 17.7785 17.6953 17.7638 17.7334C17.6584 18.0081 17.5537 18.429 17.5206 18.7113L17.4799 19.0582H15.4085C13.5702 19.0582 13.3236 19.0646 13.2169 19.1152C12.8323 19.2978 12.8348 19.8556 13.2211 20.0426C13.3614 20.1106 13.4381 20.1129 15.4951 20.1129H17.6238L17.7349 20.4235C17.9271 20.9607 18.3291 21.5369 18.7786 21.9196C19.2874 22.3529 19.8408 22.6158 20.5604 22.7661L20.6571 22.7863V23.3658V23.9452H14.8559H9.05476V15.9994V8.05352H13.4496H17.8444V9.25032ZM19.409 9.31923L19.9003 9.81145H19.3997H18.8992V9.31923C18.8992 9.04851 18.9034 8.82701 18.9084 8.82701C18.9135 8.82701 19.1388 9.04851 19.409 9.31923ZM10.352 9.50451C10.0204 9.72608 10.0422 10.1849 10.3942 10.391C10.5423 10.4777 11.1481 10.51 11.4324 10.4464C11.8225 10.3591 11.9941 9.92111 11.7565 9.61903C11.6228 9.44907 11.5251 9.4247 10.9779 9.4247C10.51 9.4247 10.4624 9.43075 10.352 9.50451ZM13.1647 9.50451C12.8329 9.72616 12.8549 10.184 13.2072 10.3916C13.3203 10.4582 13.401 10.4625 14.7505 10.4732C16.3641 10.4861 16.4787 10.4747 16.6455 10.2847C16.8173 10.089 16.8311 9.81282 16.6787 9.61903C16.5248 9.4234 16.537 9.4247 14.8453 9.4247H13.2842L13.1647 9.50451ZM10.4057 11.8865C10.0219 12.0764 10.021 12.6314 10.4042 12.8132C10.5762 12.8948 11.4008 12.8948 11.5728 12.8132C11.9574 12.6307 11.9549 12.0728 11.5686 11.8858C11.3552 11.7825 10.6149 11.7829 10.4057 11.8865ZM13.2184 11.8865C12.8346 12.0764 12.8337 12.6314 13.2169 12.8132C13.3247 12.8643 13.6227 12.8703 16.0865 12.8703C18.5503 12.8703 18.8483 12.8643 18.9561 12.8132C19.3407 12.6307 19.3382 12.0728 18.9519 11.8858C18.8105 11.8174 18.7349 11.8155 16.0842 11.8155C13.4245 11.8156 13.3584 11.8172 13.2184 11.8865ZM10.352 14.3213C10.0309 14.5358 10.0392 14.9597 10.3692 15.2061C10.457 15.2717 10.5159 15.2786 10.9885 15.2786C11.4611 15.2786 11.5199 15.2717 11.6078 15.2061C11.9378 14.9597 11.946 14.5358 11.6249 14.3213C11.5143 14.2473 11.4674 14.2414 10.9885 14.2414C10.5096 14.2414 10.4627 14.2473 10.352 14.3213ZM13.1647 14.3213C12.8436 14.5358 12.8519 14.9597 13.1819 15.2061C13.278 15.2779 13.3058 15.2786 16.0865 15.2786C18.8672 15.2786 18.895 15.2779 18.9911 15.2061C19.3211 14.9597 19.3294 14.5358 19.0083 14.3213L18.8888 14.2414H16.0865H13.2842L13.1647 14.3213ZM21.7045 16.5476C22.6863 16.7504 23.4693 17.4913 23.7408 18.4746C23.822 18.7688 23.822 19.4882 23.7408 19.7824C23.4693 20.7657 22.6863 21.5066 21.7045 21.7094C19.8798 22.0863 18.2286 20.4353 18.6032 18.6084C18.895 17.1848 20.2928 16.256 21.7045 16.5476ZM10.4823 16.6671C10.15 16.772 10.0066 17.2207 10.219 17.4908C10.3543 17.6628 10.4506 17.687 10.9991 17.687C11.467 17.687 11.5145 17.6809 11.6249 17.6072C11.946 17.3927 11.9378 16.9688 11.6079 16.7223C11.5228 16.6587 11.4537 16.6489 11.0475 16.6424C10.7927 16.6383 10.5384 16.6494 10.4823 16.6671ZM22.0459 17.9275C21.9879 17.9652 21.6883 18.2501 21.3801 18.5605L20.8197 19.1249L20.5646 18.8826C20.2827 18.6148 20.1496 18.563 19.9202 18.6317C19.6409 18.7154 19.4828 19.0013 19.5647 19.2748C19.5974 19.3838 19.7041 19.5195 19.9834 19.8073C20.1896 20.0197 20.4286 20.2386 20.5146 20.2938C20.6901 20.4066 20.8833 20.4251 21.0368 20.3441C21.089 20.3165 21.5063 19.917 21.9641 19.4563C22.6798 18.7361 22.7998 18.6 22.8209 18.4853C22.8538 18.3062 22.7594 18.0632 22.6177 17.9624C22.4653 17.8539 22.1853 17.8368 22.0459 17.9275ZM10.3985 19.1167C10.019 19.3037 10.0249 19.857 10.4084 20.0426C10.6235 20.1468 11.3562 20.1454 11.573 20.0405C11.953 19.8565 11.9529 19.2956 11.5728 19.1152C11.4012 19.0338 10.5645 19.0348 10.3985 19.1167ZM10.4841 21.5003C10.4098 21.5268 10.3106 21.5844 10.2638 21.6285C10.09 21.7917 10.0686 22.1163 10.219 22.3075C10.3538 22.4788 10.4514 22.5037 10.9885 22.5037C11.3574 22.5037 11.51 22.4904 11.5848 22.4517C12.0055 22.2342 11.9271 21.6138 11.4631 21.4876C11.2651 21.4338 10.6483 21.4417 10.4841 21.5003ZM13.2968 21.5003C13.1174 21.5643 13 21.6797 12.9522 21.839C12.8794 22.0822 12.9848 22.3379 13.2049 22.4517C13.3543 22.529 16.006 22.529 16.1554 22.4517C16.5761 22.2342 16.4977 21.6138 16.0338 21.4876C15.8136 21.4277 13.4699 21.4386 13.2968 21.5003Z" fill="url(#paint0_linear_1_922)"/>
<defs>
<linearGradient id="paint0_linear_1_922" x1="8" y1="11.9929" x2="24.8658" y2="11.9133" gradientUnits="userSpaceOnUse">
<stop stop-color="#F5BD4D"/>
<stop offset="1" stop-color="#F89222"/>
</linearGradient>
</defs>
</svg>
