<svg width="24" height="24" viewBox="0 0 24 24" fill="none" xmlns="http://www.w3.org/2000/svg">
<path d="M20.7465 11.1254L16.4956 7.03282V3.77565C16.4956 3.35608 16.1497 3.01012 15.7301 3.01012C15.3105 3.01012 14.9646 3.35608 14.9646 3.77565V5.56065L12.5134 3.2015C12.2447 2.93283 11.7847 2.93283 11.4792 3.2015L3.2498 11.1254C2.94432 11.4309 2.90384 11.891 3.21299 12.1964C3.52215 12.5019 3.97852 12.5424 4.28399 12.2332L4.39809 12.1228V20.2345C4.39809 20.654 4.74405 21 5.16361 21H18.8695C19.2891 21 19.5982 20.654 19.635 20.2713V12.2001L19.7123 12.2737C20.2717 12.6602 20.6692 12.3878 20.7833 12.1964C21.052 11.891 21.052 11.3941 20.7465 11.1254ZM13.3562 19.5094H10.6769V15.4131H13.3562V19.5094ZM18.104 19.5094H14.8505V14.6476C14.8505 14.228 14.5045 13.8821 14.0849 13.8821H9.91135C9.49178 13.8821 9.14582 14.228 9.14582 14.6476V19.5094H5.92914V12.0051H18.104V19.5094ZM6.07636 10.5145L12.0166 4.80984L17.8979 10.5145H6.07636Z" fill="white"/>
</svg>
