<svg width="32" height="32" viewBox="0 0 32 32" fill="none" xmlns="http://www.w3.org/2000/svg">
<path d="M27.662 14.8339L21.9942 9.37709V5.0342C21.9942 4.47477 21.5329 4.01349 20.9735 4.01349C20.414 4.01349 19.9528 4.47477 19.9528 5.0342V7.4142L16.6845 4.26867C16.3263 3.91044 15.7129 3.91044 15.3056 4.26867L4.33306 14.8339C3.92576 15.2412 3.87178 15.8546 4.28399 16.2619C4.6962 16.6692 5.30469 16.7232 5.71199 16.311L5.86412 16.1638V26.9793C5.86412 27.5387 6.32539 28 6.88482 28H25.1593C25.7187 28 26.1309 27.5387 26.18 27.0284V16.2668L26.2831 16.365C27.029 16.8802 27.5589 16.5171 27.7111 16.2619C28.0693 15.8546 28.0693 15.1921 27.662 14.8339ZM17.8083 26.0126H14.2358V20.5508H17.8083V26.0126ZM24.1386 26.0126H19.8006V19.5301C19.8006 18.9707 19.3393 18.5094 18.7799 18.5094H13.2151C12.6557 18.5094 12.1944 18.9707 12.1944 19.5301V26.0126H7.90552V16.0067H24.1386V26.0126ZM8.10181 14.0193L16.0221 6.41313L23.8638 14.0193H8.10181Z" fill="url(#paint0_linear_1_858)"/>
<defs>
<linearGradient id="paint0_linear_1_858" x1="4" y1="10.6572" x2="27.9778" y2="10.5366" gradientUnits="userSpaceOnUse">
<stop stop-color="#F5BD4D"/>
<stop offset="1" stop-color="#F89222"/>
</linearGradient>
</defs>
</svg>
