<svg width="32" height="32" viewBox="0 0 32 32" fill="none" xmlns="http://www.w3.org/2000/svg">
<path fill-rule="evenodd" clip-rule="evenodd" d="M12.1931 4.08495C11.6099 4.24508 11.0936 4.77092 10.9352 5.36605C10.8289 5.76562 10.8306 6.62242 10.9381 6.83043C11.0885 7.12134 11.4694 7.23375 11.7728 7.07683C12.036 6.94072 12.0716 6.8518 12.1078 6.23905C12.1439 5.62804 12.1999 5.47068 12.424 5.35072C12.6191 5.24636 19.2023 5.24636 19.3974 5.35072C19.6215 5.47068 19.6775 5.62804 19.7137 6.23905C19.7499 6.8518 19.7855 6.94072 20.0487 7.07683C20.3521 7.23375 20.7329 7.12134 20.8833 6.83043C20.991 6.6222 20.9925 5.76545 20.886 5.36496C20.7243 4.75754 20.2099 4.24351 19.6019 4.08169C19.1852 3.97081 12.5983 3.97369 12.1931 4.08495ZM3.59627 8.45837C2.97472 8.55072 2.44117 8.95317 2.16809 9.53575L2.02296 9.84536L2.00665 12.2048C1.99111 14.4595 1.99535 14.5805 2.1027 14.934C2.24446 15.4006 2.66419 15.8837 3.08517 16.0648C3.27655 16.1471 13.1639 18.4063 13.3328 18.4063C13.3404 18.4063 13.3548 18.9138 13.365 19.5342C13.3853 20.7716 13.4014 20.8384 13.717 20.9882C13.972 21.1092 17.8494 21.1092 18.1044 20.9882C18.42 20.8384 18.4362 20.7716 18.4564 19.5342C18.4666 18.9138 18.4811 18.4063 18.4886 18.4063C18.6576 18.4063 28.5449 16.1471 28.7363 16.0648C29.1572 15.8837 29.577 15.4006 29.7187 14.934C29.8261 14.5805 29.8303 14.4595 29.8148 12.2048L29.7985 9.84536L29.6515 9.53173C29.4587 9.12031 29.0446 8.72026 28.6441 8.55855L28.3309 8.43212L16.101 8.42484C9.3745 8.42087 3.74738 8.43593 3.59627 8.45837ZM28.307 9.82052C28.3974 9.88487 28.4865 10.0163 28.5189 10.1331C28.6012 10.4292 28.5885 14.3566 28.5045 14.5963C28.4688 14.6982 28.3784 14.826 28.3037 14.8803C28.214 14.9455 26.5228 15.3466 23.3302 16.0599L18.4926 17.1407L18.4539 16.8115C18.4011 16.3616 18.3237 16.2002 18.1125 16.1C17.8435 15.9724 13.9779 15.9724 13.709 16.1C13.4977 16.2002 13.4203 16.3616 13.3675 16.8115L13.3288 17.1407L8.49123 16.0599C5.29862 15.3466 3.60741 14.9455 3.51773 14.8803C3.44299 14.826 3.35265 14.6982 3.31694 14.5963C3.23497 14.3624 3.21953 10.4276 3.29949 10.1439C3.32895 10.0395 3.42065 9.89917 3.50332 9.83204L3.65361 9.71001L15.9023 9.70974C28.1503 9.70947 28.151 9.70947 28.307 9.82052ZM3.04533 17.3243C2.94988 17.3522 2.82106 17.4463 2.75898 17.5335C2.64674 17.6912 2.64625 17.7131 2.66071 22.1665L2.67522 26.6411L2.81915 26.9481C3.00244 27.339 3.33618 27.6728 3.7271 27.8561L4.0341 28H15.9107H27.7873L28.0943 27.8561C28.4853 27.6728 28.819 27.339 29.0023 26.9481L29.1462 26.6411L29.1607 22.1665C29.1751 17.7238 29.1744 17.6908 29.0633 17.5346C28.9374 17.3579 28.6445 17.2538 28.4068 17.3013C28.2025 17.3421 27.9994 17.55 27.957 17.7616C27.9384 17.8546 27.9231 19.8171 27.923 22.1228C27.9228 26.179 27.9194 26.3206 27.8171 26.4883C27.7461 26.6048 27.6437 26.6805 27.5048 26.719C27.2173 26.7989 4.60635 26.7995 4.31898 26.7197C3.9024 26.604 3.92865 26.8972 3.89821 22.0234C3.86951 17.4326 3.87587 17.5419 3.63019 17.3885C3.48522 17.298 3.23073 17.2701 3.04533 17.3243ZM17.1609 18.5422V19.8195H15.9107H14.6605V18.5422V17.2648H15.9107H17.1609V18.5422Z" fill="#646464"/>
</svg>
